<svg width="960" height="600" xmlns="http://www.w3.org/2000/svg" xmlns:xlink="http://www.w3.org/1999/xlink" overflow="hidden"><defs><clipPath id="clip0"><rect x="0" y="0" width="960" height="600"/></clipPath><linearGradient x1="872.214" y1="377.821" x2="579.786" y2="31.1794" gradientUnits="userSpaceOnUse" spreadMethod="reflect" id="stroke1"><stop offset="0" stop-color="#FF00FF"/><stop offset="0.52" stop-color="#FF0066"/><stop offset="1" stop-color="#FF0066"/></linearGradient><linearGradient x1="862.53" y1="369.066" x2="588.471" y2="39.9336" gradientUnits="userSpaceOnUse" spreadMethod="reflect" id="stroke2"><stop offset="0" stop-color="#FF00FF"/><stop offset="0.52" stop-color="#FF0066"/><stop offset="1" stop-color="#FF0066"/></linearGradient><linearGradient x1="853.988" y1="359.495" x2="597.012" y2="48.505" gradientUnits="userSpaceOnUse" spreadMethod="reflect" id="stroke3"><stop offset="0" stop-color="#FF00FF"/><stop offset="0.52" stop-color="#FF0066"/><stop offset="1" stop-color="#FF0066"/></linearGradient><linearGradient x1="846.026" y1="351.529" x2="604.974" y2="58.4716" gradientUnits="userSpaceOnUse" spreadMethod="reflect" id="stroke4"><stop offset="0" stop-color="#FF00FF"/><stop offset="0.52" stop-color="#FF0066"/><stop offset="1" stop-color="#FF0066"/></linearGradient><linearGradient x1="839.07" y1="343.57" x2="612.93" y2="67.4304" gradientUnits="userSpaceOnUse" spreadMethod="reflect" id="stroke5"><stop offset="0" stop-color="#FF00FF"/><stop offset="0.52" stop-color="#FF0066"/><stop offset="1" stop-color="#FF0066"/></linearGradient><linearGradient x1="829.159" y1="334.476" x2="622.841" y2="75.5238" gradientUnits="userSpaceOnUse" spreadMethod="reflect" id="stroke6"><stop offset="0" stop-color="#FF00FF"/><stop offset="0.52" stop-color="#FF0066"/><stop offset="1" stop-color="#FF0066"/></linearGradient><linearGradient x1="916.017" y1="319.058" x2="638.507" y2="-12.769" gradientUnits="userSpaceOnUse" spreadMethod="reflect" id="stroke7"><stop offset="0" stop-color="#FF00FF"/><stop offset="0.52" stop-color="#FF0066"/><stop offset="1" stop-color="#FF0066"/></linearGradient><linearGradient x1="909.965" y1="301.144" x2="654.477" y2="-3.37556" gradientUnits="userSpaceOnUse" spreadMethod="reflect" id="stroke8"><stop offset="0" stop-color="#FF00FF"/><stop offset="0.52" stop-color="#FF0066"/><stop offset="1" stop-color="#FF0066"/></linearGradient><linearGradient x1="460.194" y1="402.223" x2="499.806" y2="447.777" gradientUnits="userSpaceOnUse" spreadMethod="reflect" id="fill9"><stop offset="0" stop-color="#FF0066"/><stop offset="0.00990099" stop-color="#FF0065"/><stop offset="0.019802" stop-color="#FF0165"/><stop offset="0.029703" stop-color="#FF0265"/><stop offset="0.039604" stop-color="#FF0365"/><stop offset="0.049505" stop-color="#FF0465"/><stop offset="0.0594059" stop-color="#FF0565"/><stop offset="0.0693069" stop-color="#FF0665"/><stop offset="0.0792079" stop-color="#FF0765"/><stop offset="0.0891089" stop-color="#FF0864"/><stop offset="0.0990099" stop-color="#FF0964"/><stop offset="0.108911" stop-color="#FF0964"/><stop offset="0.118812" stop-color="#FF0A64"/><stop offset="0.128713" stop-color="#FF0B63"/><stop offset="0.138614" stop-color="#FF0C63"/><stop offset="0.148515" stop-color="#FF0D63"/><stop offset="0.158416" stop-color="#FF0E62"/><stop offset="0.168317" stop-color="#FF0E62"/><stop offset="0.178218" stop-color="#FF0F61"/><stop offset="0.188119" stop-color="#FF1061"/><stop offset="0.19802" stop-color="#FF1161"/><stop offset="0.207921" stop-color="#FF1260"/><stop offset="0.217822" stop-color="#FF1260"/><stop offset="0.227723" stop-color="#FF135F"/><stop offset="0.237624" stop-color="#FF145F"/><stop offset="0.247525" stop-color="#FF155E"/><stop offset="0.257426" stop-color="#FF155D"/><stop offset="0.267327" stop-color="#FF165D"/><stop offset="0.277228" stop-color="#FF175C"/><stop offset="0.287129" stop-color="#FF175C"/><stop offset="0.29703" stop-color="#FF185B"/><stop offset="0.306931" stop-color="#FF195A"/><stop offset="0.316832" stop-color="#FF1A5A"/><stop offset="0.326733" stop-color="#FF1A59"/><stop offset="0.336634" stop-color="#FF1B58"/><stop offset="0.346535" stop-color="#FF1C58"/><stop offset="0.356436" stop-color="#FF1C57"/><stop offset="0.366337" stop-color="#FF1D56"/><stop offset="0.376238" stop-color="#FF1D55"/><stop offset="0.386139" stop-color="#FF1E54"/><stop offset="0.39604" stop-color="#FF1F54"/><stop offset="0.405941" stop-color="#FF1F53"/><stop offset="0.415842" stop-color="#FF2052"/><stop offset="0.425743" stop-color="#FF2051"/><stop offset="0.435644" stop-color="#FF2150"/><stop offset="0.445545" stop-color="#FF224F"/><stop offset="0.455446" stop-color="#FF224E"/><stop offset="0.465347" stop-color="#FF234D"/><stop offset="0.475248" stop-color="#FF234C"/><stop offset="0.485149" stop-color="#FF244B"/><stop offset="0.49505" stop-color="#FF244A"/><stop offset="0.504951" stop-color="#FF2549"/><stop offset="0.514852" stop-color="#FF2548"/><stop offset="0.524752" stop-color="#FF2647"/><stop offset="0.534653" stop-color="#FF2646"/><stop offset="0.544554" stop-color="#FF2745"/><stop offset="0.554455" stop-color="#FF2744"/><stop offset="0.564356" stop-color="#FF2843"/><stop offset="0.574257" stop-color="#FF2841"/><stop offset="0.584158" stop-color="#FF2940"/><stop offset="0.594059" stop-color="#FF293F"/><stop offset="0.60396" stop-color="#FF2A3E"/><stop offset="0.613861" stop-color="#FF2A3D"/><stop offset="0.623762" stop-color="#FF2A3B"/><stop offset="0.633663" stop-color="#FF2B3A"/><stop offset="0.643564" stop-color="#FF2B39"/><stop offset="0.653465" stop-color="#FF2C38"/><stop offset="0.663366" stop-color="#FF2C36"/><stop offset="0.673267" stop-color="#FF2C35"/><stop offset="0.683168" stop-color="#FF2D34"/><stop offset="0.693069" stop-color="#FF2D32"/><stop offset="0.70297" stop-color="#FF2D31"/><stop offset="0.712871" stop-color="#FF2E2F"/><stop offset="0.722772" stop-color="#FF2E2E"/><stop offset="0.732673" stop-color="#FF2E2D"/><stop offset="0.742574" stop-color="#FF2E2B"/><stop offset="0.752475" stop-color="#FF2F2A"/><stop offset="0.762376" stop-color="#FF2F28"/><stop offset="0.772277" stop-color="#FF2F27"/><stop offset="0.782178" stop-color="#FF3025"/><stop offset="0.792079" stop-color="#FF3024"/><stop offset="0.80198" stop-color="#FF3022"/><stop offset="0.811881" stop-color="#FF3020"/><stop offset="0.821782" stop-color="#FF301F"/><stop offset="0.831683" stop-color="#FF311D"/><stop offset="0.841584" stop-color="#FF311C"/><stop offset="0.851485" stop-color="#FF311A"/><stop offset="0.861386" stop-color="#FF3118"/><stop offset="0.871287" stop-color="#FF3117"/><stop offset="0.881188" stop-color="#FF3215"/><stop offset="0.891089" stop-color="#FF3213"/><stop offset="0.90099" stop-color="#FF3212"/><stop offset="0.910891" stop-color="#FF3210"/><stop offset="0.920792" stop-color="#FF320E"/><stop offset="0.930693" stop-color="#FF320C"/><stop offset="0.940594" stop-color="#FF320B"/><stop offset="0.950495" stop-color="#FF3209"/><stop offset="0.960396" stop-color="#FF3207"/><stop offset="0.970297" stop-color="#FF3205"/><stop offset="0.980198" stop-color="#FF3203"/><stop offset="0.990099" stop-color="#FF3201"/><stop offset="1" stop-color="#FF3300"/></linearGradient></defs><g clip-path="url(#clip0)"><rect x="0" y="0" width="960" height="600" fill="#FFF5F5"/><path d="M551.5 119.534C551.5 85.2735 579.273 57.5001 613.534 57.5001L838.466 57.5001C872.727 57.5001 900.5 85.2735 900.5 119.534L900.5 289.466C900.5 323.727 872.727 351.5 838.466 351.5L613.534 351.5C579.273 351.5 551.5 323.727 551.5 289.466Z" stroke="url(#stroke1)" stroke-width="2.66667" stroke-miterlimit="8" fill="none" fill-rule="evenodd"/><path d="M559.5 124.736C559.5 92.5731 585.573 66.5001 617.736 66.5001L833.264 66.5001C865.427 66.5001 891.5 92.5731 891.5 124.736L891.5 284.264C891.5 316.427 865.427 342.5 833.264 342.5L617.736 342.5C585.573 342.5 559.5 316.427 559.5 284.264Z" stroke="url(#stroke2)" stroke-width="2.66667" stroke-miterlimit="8" fill="none" fill-rule="evenodd"/><path d="M568.5 129.149C568.5 98.9672 592.967 74.5001 623.149 74.5001L827.851 74.5001C858.033 74.5001 882.5 98.9672 882.5 129.149L882.5 278.851C882.5 309.033 858.033 333.5 827.851 333.5L623.149 333.5C592.967 333.5 568.5 309.033 568.5 278.851Z" stroke="url(#stroke3)" stroke-width="2.66667" stroke-miterlimit="8" fill="none" fill-rule="evenodd"/><path d="M577.5 134.773C577.5 106.456 600.456 83.5001 628.773 83.5001L822.227 83.5001C850.544 83.5001 873.5 106.456 873.5 134.773L873.5 275.227C873.5 303.544 850.544 326.5 822.227 326.5L628.773 326.5C600.456 326.5 577.5 303.544 577.5 275.227Z" stroke="url(#stroke4)" stroke-width="2.66667" stroke-miterlimit="8" fill="none" fill-rule="evenodd"/><path d="M586.5 139.608C586.5 113.039 608.039 91.5001 634.608 91.5001L817.392 91.5001C843.961 91.5001 865.5 113.039 865.5 139.608L865.5 271.392C865.5 297.961 843.961 319.5 817.392 319.5L634.608 319.5C608.039 319.5 586.5 297.961 586.5 271.392Z" stroke="url(#stroke5)" stroke-width="2.66667" stroke-miterlimit="8" fill="none" fill-rule="evenodd"/><path d="M594.5 144.599C594.5 120.244 614.244 100.5 638.599 100.5L813.401 100.5C837.756 100.5 857.5 120.244 857.5 144.599L857.5 265.401C857.5 289.756 837.756 309.5 813.401 309.5L638.599 309.5C614.244 309.5 594.5 289.756 594.5 265.401Z" stroke="url(#stroke6)" stroke-width="2.66667" stroke-miterlimit="8" fill="none" fill-rule="evenodd"/><path d="M669.122 13.5004 870.95 13.5004C907.078 13.3591 944.5 51.692 944.5 85.2288L944.5 234.864C944.5 257.147 934.081 277.057 917.735 290.213L915.97 291.5 915.97 102.827C915.97 68.4899 887.427 40.6541 852.218 40.6541L613.132 40.6541 611.5 40.7344 612.368 39.6029C625.858 23.6615 646.273 13.5004 669.122 13.5004Z" stroke="url(#stroke7)" stroke-width="2.66667" stroke-miterlimit="8" fill="none" fill-rule="evenodd"/><path d="M666.335 20.5001 866.638 20.6417C904.801 20.9805 935.724 55.6506 935.073 89.2291 934.856 138.544 935.68 187.519 935.463 236.834 935.463 250.394 935.961 257.928 924.005 274.5 923.75 217.259 923.85 159.304 923.595 102.062 922.944 53.3392 881.773 32.7889 853.941 33.0013L630.5 33.6051C638.752 23.9044 652.358 20.5001 666.335 20.5001Z" stroke="url(#stroke8)" stroke-width="2.66667" stroke-miterlimit="8" fill="none" fill-rule="evenodd"/><path d="M446 405.875C446 397.66 452.66 391 460.875 391L499.125 391C507.34 391 514 397.66 514 405.875L514 444.125C514 452.34 507.34 459 499.125 459L460.875 459C452.66 459 446 452.34 446 444.125Z" fill="#FFFFFF" fill-rule="evenodd"/><path d="M490.455 410.405C494.496 410.405 497.773 413.794 497.773 417.973L497.773 437.432C497.773 441.612 494.496 445 490.455 445L464.318 445C460.276 445 457 441.612 457 437.432L457 417.973C457 413.794 460.276 410.405 464.318 410.405L490.455 410.405ZM493.591 405C498.787 405 503 409.241 503 414.474L503 431.173C503 433.833 501.776 436.204 499.864 437.747L499.864 415.612C499.864 411.678 496.802 408.464 492.947 408.254L492.546 408.243 463.996 408.242C465.526 406.269 467.912 405 470.591 405L493.591 405Z" fill="url(#fill9)" fill-rule="evenodd"/><text font-family="HarmonyOS Sans SC Medium,HarmonyOS Sans SC Medium_MSFontService,sans-serif" font-weight="500" font-size="23" transform="translate(446.166 500)">“死狗”<tspan fill="#000000" fill-opacity="0.8" font-family="HarmonyOS Sans SC,HarmonyOS Sans SC_MSFontService,sans-serif" font-weight="400" font-size="15" x="4.50015" y="25">专业黑屏</tspan></text></g></svg>